# xmcd
#
# Track frame offsets:
#	150
#	10730
#	24517
#	38876
#	59626
#	76955
#	91512
#	110579
#	132404
#
# Disc length: 2015 seconds
#
# Revision: 0
# Processed by: cddbd v1.5.2PL0 Copyright (c) Steve Scherf et al.
# Submitted via: EasyCDDAExtractor 4.6.0.1
#
DISCID=6907dd09
DTITLE=Terry McMillan - I've Got A Feeling
DYEAR=1993
DGENRE=Country
TTITLE0=I'll Fly Away
TTITLE1=Just As I Am
TTITLE2=When The Saints Go Marching In
TTITLE3=Jesus Loves Me
TTITLE4=Swing Low Sweet Chariot
TTITLE5=I Saw The Light
TTITLE6=Amazing Grace
TTITLE7=I've Got A Feeling
TTITLE8=This Train
EXTD=
EXTT0=
EXTT1=
EXTT2=
EXTT3=
EXTT4=
EXTT5=
EXTT6=
EXTT7=
EXTT8=
PLAYORDER=
